<svg xmlns="http://www.w3.org/2000/svg" xmlns:xlink="http://www.w3.org/1999/xlink" width="184" zoomAndPan="magnify" viewBox="0 0 138 137.999998" height="184" preserveAspectRatio="xMidYMid meet" version="1.0"><defs><clipPath id="e06f49485d"><path d="M 11 21.394531 L 127 21.394531 L 127 122 L 11 122 Z M 11 21.394531 " clip-rule="nonzero"/></clipPath></defs><g clip-path="url(#e06f49485d)"><path fill="#f79a15" d="M 94.949219 90.410156 C 99.5 92.050781 104.464844 91.527344 109.210938 87.882812 C 114.210938 84.039062 116.925781 78.261719 116.058594 71.9375 C 115.996094 71.511719 115.921875 71.089844 115.832031 70.671875 C 116.492188 70.421875 117.085938 70.011719 117.59375 69.457031 C 120.894531 65.816406 125.5 59.511719 126.058594 54.582031 C 127.050781 45.960938 123.921875 38.089844 115.210938 35.023438 C 112.765625 34.164062 110.4375 33.777344 108.179688 33.757812 C 108.074219 33.117188 107.820312 32.503906 107.433594 31.925781 C 106.105469 30.003906 104.09375 28.027344 102.269531 26.601562 C 98.089844 23.332031 93.144531 21.464844 87.800781 21.699219 C 83.390625 21.890625 79.390625 23.0625 76.042969 25.734375 C 75.664062 25.390625 75.21875 25.109375 74.722656 24.902344 C 73.054688 24.199219 70.886719 23.84375 69.101562 23.746094 C 64.839844 23.511719 60.589844 24.578125 56.824219 26.554688 C 53.792969 28.148438 51.265625 30.289062 49.308594 32.972656 C 48.097656 32.15625 46.726562 31.464844 45.492188 30.988281 C 41.132812 29.289062 36.527344 29.34375 32.1875 31.121094 C 28.144531 32.773438 24.769531 35.5625 22.902344 39.570312 C 22.179688 41.105469 21.601562 43.097656 21.539062 44.871094 C 19.996094 45.3125 18.523438 46.023438 17.207031 46.9375 C 13.371094 49.589844 10.960938 53.894531 11.457031 58.632812 C 11.90625 62.964844 14.554688 67.730469 17.46875 71.078125 C 17.351562 71.195312 17.234375 71.3125 17.125 71.429688 C 12.972656 75.863281 12.757812 81.695312 15.292969 87.027344 C 17.023438 90.65625 19.707031 93.273438 23.128906 94.535156 C 22.957031 99.816406 22.535156 114.230469 22.621094 118.242188 C 22.882812 129.128906 42.660156 105.519531 46.40625 100.941406 C 48.246094 101.222656 50.105469 101.148438 51.855469 100.644531 C 54.328125 99.929688 56.402344 98.40625 57.9375 96.347656 C 58.199219 95.996094 58.441406 95.636719 58.675781 95.246094 C 59.84375 95.636719 61.125 95.519531 62.269531 94.886719 C 65.015625 93.351562 69.472656 92.496094 71.882812 95.078125 C 75.546875 98.992188 80.566406 100.429688 85.71875 98.960938 C 89.078125 98 93.039062 95.484375 94.429688 92.136719 C 94.660156 91.566406 94.832031 90.988281 94.949219 90.410156 Z M 28.089844 95.375 L 28.324219 95.375 C 30.535156 95.328125 33.171875 94.769531 35.273438 93.839844 C 36.71875 96.113281 38.875 98 41.339844 99.28125 C 36.898438 104.445312 27.695312 114.914062 27.65625 113.136719 C 27.566406 109.589844 27.90625 99.96875 28.089844 95.375 Z M 87.53125 63.675781 C 90.164062 62.566406 99.4375 59.136719 105.445312 63.042969 C 112.503906 67.648438 114.546875 78.0625 106.449219 84.292969 C 98.34375 90.519531 91.53125 83.191406 90.160156 81.710938 C 88.777344 80.238281 86.152344 82.1875 87.695312 84.164062 C 89.230469 86.148438 91.402344 87.585938 90.238281 90.410156 C 89.074219 93.234375 81.042969 98.246094 75.195312 91.992188 C 69.355469 85.726562 60.058594 90.925781 60.058594 90.925781 C 60.058594 90.925781 61.03125 85.796875 60.382812 84.117188 C 59.722656 82.429688 56.90625 82.71875 56.835938 85.285156 C 56.753906 87.835938 55.832031 94.777344 50.597656 96.292969 C 45.355469 97.800781 37.820312 93.109375 37.9375 87.523438 C 38.007812 84.039062 38.460938 82.570312 39.089844 81.347656 C 39.742188 80.105469 41.238281 78.667969 39.488281 77.558594 C 38.652344 77.015625 37.367188 76.945312 36.3125 78.296875 C 34.378906 80.773438 33.398438 85.5 33.785156 89.535156 C 33.785156 89.535156 23.859375 94.472656 19.382812 85.078125 C 14.90625 75.671875 23.757812 71.042969 28.046875 71.023438 C 32.332031 71.003906 35.273438 73.722656 35.734375 74.128906 C 36.1875 74.535156 39.183594 72.839844 37.503906 70.890625 C 35.835938 68.929688 29.011719 64.96875 21.382812 68.667969 C 21.382812 68.667969 16.511719 63.46875 15.960938 58.160156 C 15.335938 52.1875 22.277344 47.65625 27.304688 49.128906 C 31.328125 50.3125 34.9375 54.253906 38.414062 58.648438 C 46.355469 68.730469 54.066406 78.253906 68.25 72.1875 C 72.175781 70.507812 70.300781 67.484375 67.941406 68.46875 C 44.589844 78.234375 42.726562 43.992188 26.058594 45.253906 C 26.058594 45.253906 25.960938 38.566406 33.910156 35.308594 C 41.863281 32.058594 47.875 37.574219 47.875 37.574219 C 47.875 37.574219 45.980469 43.800781 45.914062 45.210938 C 45.859375 46.617188 48.695312 47.421875 49.390625 44.625 C 50.09375 41.824219 51.105469 34.679688 58.9375 30.5625 C 66.773438 26.453125 72.964844 29.074219 72.964844 29.074219 C 64.90625 42.050781 68.460938 46.933594 53.359375 55.167969 C 51.796875 56.015625 53.152344 59.363281 55.859375 58.179688 C 76.136719 49.324219 68.695312 27.0625 87.996094 26.21875 C 97.746094 25.796875 103.691406 34.488281 103.691406 34.488281 C 93.890625 36.71875 95.679688 40.617188 82.058594 42.140625 C 80.648438 42.292969 80.117188 44.800781 82.464844 45.40625 C 84.8125 46 90.039062 45.597656 94.792969 42.808594 C 99.546875 40.015625 105.992188 36.578125 113.699219 39.292969 C 121.417969 42.003906 122.109375 49.203125 121.558594 54.058594 C 121 58.925781 114.230469 66.40625 114.230469 66.40625 C 111.082031 61.25 106.910156 58.292969 101.476562 57.542969 C 96.566406 56.863281 90.457031 58.027344 85.980469 60.300781 C 83.75 61.445312 84.679688 64.878906 87.53125 63.675781 Z M 87.53125 63.675781 " fill-opacity="1" fill-rule="evenodd"/></g></svg>